<svg xmlns="http://www.w3.org/2000/svg" viewBox="0 0 512 512"><path d="M130.2 127.5c.2.1.1.1 0 0zm351.4 45.4c-10.6-25.5-32-53-48.9-61.7a252 252 0 0 1 24.8 74.4c-27.6-68.8-74.4-96.5-112.6-156.9-15-23.6-10.9-25.2-13.1-24.6l-.1.1c-46.7 25.9-75.3 78.3-82.6 122.7-16.6.9-32.9 5-47.9 12.1a6 6 0 0 0-3.1 3 6.5 6.5 0 0 0-.6 4.3c.2.9.6 1.7 1.1 2.3a6.1 6.1 0 0 0 4.4 2.5c.8 0 1.7-.1 2.5-.3l.5-.2a119.5 119.5 0 0 1 49.5-11.4c62.9-.5 97.2 44.1 107.7 62.3a84.7 84.7 0 0 0-58.9-14.3c87.8 43.9 64.2 194.6-57.3 189.2-59.5-2.6-97.1-50.9-100.6-90.8 0 0 11.3-41.9 80.6-41.9 7.5 0 29-20.9 29.4-27-.1-2-42.6-18.9-59.1-35.2-8.9-8.7-13.1-12.9-16.8-16-2-1.7-4.1-3.3-6.3-4.8a112.7 112.7 0 0 1-.7-59.6 181.7 181.7 0 0 0-58.7 45.3h-.1c-9.7-12.2-9-52.6-8.4-61.1-.2-.5-7.3 3.7-8.2 4.4a209 209 0 0 0-79.3 121.6 304.2 304.2 0 0 0-6.8 52.3 243.9 243.9 0 0 0 243.9 243.9c120.7 0 223-87.2 240.5-202.6 11.5-76.7-14.8-131.1-14.8-132z"/></svg>