<svg class="svg-icon" style="width: 1em; height: 1em;vertical-align: middle;fill: currentColor;overflow: hidden;" viewBox="0 0 1024 1024" version="1.1" xmlns="http://www.w3.org/2000/svg"><path d="M757 666l-176.6-154 176.4-152.2c13.8-12 14.8-32.6 2.2-45.8L525.4 71.2c-4.4-4.6-10.8-7.2-17.2-7.2-12.2 0-22.2 9.8-22.2 21.6V424l-172.6-146.6c-14.2-12-35.6-10.6-48.2 3-13 14-11.6 35.8 3.2 48.2L486 512l-216.2 181.8c-14.6 12.2-16.2 33.6-3.4 47.8l0.6 0.6c12.6 14 34.6 15.4 49 3l170-147.2v339.6c0 12.4 10.2 22.4 23 22.4 6.4 0 12.4-2.6 16.8-7L759.2 712c12.6-13.2 11.6-33.8-2.2-46z m-198.2-464.2l125.4 131.8c1.6 1.6 1.4 4.2-0.4 5.8l-125.4 106c-2.6 2.2-6.8 0.4-6.8-3V204.6c0.2-3.8 4.8-5.4 7.2-2.8z m-7 618V583.2c0-3.4 4.2-5.2 6.8-3l125.4 106c1.8 1.4 1.8 4 0.4 5.8l-125.4 130.6c-2.6 2.6-7.2 0.8-7.2-2.8z"  /></svg>