<svg fill="none" viewBox="-32 -32 1024 1024">
  <g fill="white">
    <path d="M724.324 240h-184.95c.552 4.498.38 9.056-.506 13.5l-.282 1.388-.394 1.368L525.93 300h198.394a55.753 55.753 0 0 1 39.354 16.332 55.772 55.772 0 0 1 16.334 39.356v248.624A55.768 55.768 0 0 1 724.324 660H463.136l-45.788 60h306.976a115.817 115.817 0 0 0 115.688-115.688V355.688A115.817 115.817 0 0 0 724.324 240zM90 604.312V355.688A55.766 55.766 0 0 1 145.688 300h257.7l45.75-60h-303.45A115.82 115.82 0 0 0 30 355.688v248.624A115.82 115.82 0 0 0 145.688 720h181.594a42.275 42.275 0 0 1 .488-13.724l.28-1.406.394-1.37 12.188-43.5H145.688A55.76 55.76 0 0 1 90 604.312z"/>
    <path d="m517.638 526.662 50.756-66.544a9.714 9.714 0 0 0 1.594-4.82 9.084 9.084 0 0 0-.15-2.418 9.544 9.544 0 0 0-1.276-3.282 8.926 8.926 0 0 0-1.462-1.78 6.444 6.444 0 0 0-.9-.714 7.481 7.481 0 0 0-2.08-1.03 7.994 7.994 0 0 0-2.458-.376H446.126l22.724-81.018 6.056-21.562 11.644-41.55.956-3.45 14.606-52.052c.058-.34.09-.684.094-1.03v-.3c0-.094 0-.488-.094-.712-.094-.226 0-.17 0-.264a4.135 4.135 0 0 0-.318-.844 7.028 7.028 0 0 0-.488-.73l-.168-.188a5.076 5.076 0 0 0-.47-.432l-.186-.15a6.353 6.353 0 0 0-.732-.45 3.824 3.824 0 0 0-.768-.262h-1.106a4.25 4.25 0 0 0-.844 0 3.705 3.705 0 0 0-.788.282l-.244.13-.562.394-.206.188c-.254.23-.48.488-.676.768l-33.75 44.308-24.638 32.286-18.468 24.058-119.456 156.656c-.314.478-.59.978-.826 1.5a9.028 9.028 0 0 0-.656 2.044 8.837 8.837 0 0 0-.15 2.418 9.149 9.149 0 0 0 1.082 3.906 9.099 9.099 0 0 0 2.668 3.05 8.091 8.091 0 0 0 4.556 1.388h115.538l-55.912 199.538c-.026.35-.026.7 0 1.05v.28c.018.24.056.478.112.714-.01.088-.01.176 0 .262.076.292.182.576.32.844.148.248.31.486.486.712l.17.188.468.45c.072.038.136.09.188.15.228.168.474.312.73.43a5.3 5.3 0 0 0 .77.264h.244c.206.018.414.018.618 0h.244c.284-.01.568-.048.844-.114.266-.07.524-.172.768-.3l.244-.13.562-.394.206-.168c.256-.23.48-.488.676-.77l43.724-57.094 32.87-43.124zM900 380.004a30.014 30.014 0 0 0-21.214 8.786A30.014 30.014 0 0 0 870 410.004v139.988a30.01 30.01 0 0 0 8.786 21.214 30.006 30.006 0 0 0 42.428 0A30.01 30.01 0 0 0 930 549.992V410.004a30.014 30.014 0 0 0-8.786-21.214A30.014 30.014 0 0 0 900 380.004z"/>
    <path d="M168.173 343.121c-1.189 0-2.37.064-3.543.176-.184.017-.358.045-.54.065-.883.097-1.76.234-2.632.393-1.397.25-2.727.564-3.984.935-.869.259-1.716.576-2.563.897-.491.185-.99.366-1.455.564-.928.396-1.844.823-2.738 1.293a37.459 37.459 0 0 0-9.06 6.662 37.507 37.507 0 0 0-4.6 5.6l-.143.21c-.52.786-.989 1.6-1.447 2.42a38.03 38.03 0 0 0-1.645 3.315c-.338.776-.649 1.606-.95 2.455-.183.513-.392 1.016-.552 1.537a37.508 37.508 0 0 0-1.03 4.375c-.142.785-.266 1.574-.356 2.37-.028.253-.066.498-.09.755a37.428 37.428 0 0 0-.172 3.479v198.75c0 1.592.154 3.034.298 4.48 1 8.293 4.72 16.071 10.686 22.037 5.894 5.896 13.556 9.586 21.734 10.64 1.546.16 3.068.343 4.782.343h107.605c22.44 0 37.5-18.489 37.5-37.5v-27.828h-8.305a45.723 45.723 0 0 1-23.603-6.56 45.71 45.71 0 0 1-16.822-17.815 46.855 46.855 0 0 1-5.418-24.586 46.873 46.873 0 0 1 8.08-23.844l.582-.865.617-.822 44.87-58.84v-37.594c0-17.018-10.983-26.516-10.983-26.516s-9.563-10.984-26.518-10.984z"/>
  </g>
</svg>
