<svg fill="none" viewBox="-32 -32 1024 1024">
  <g fill="white">
    <path d="M145.688 240A115.82 115.82 0 0 0 30 355.688V604.31A115.821 115.821 0 0 0 145.688 720h578.636a115.83 115.83 0 0 0 81.765-33.924 115.818 115.818 0 0 0 33.924-81.765V355.687A115.818 115.818 0 0 0 724.323 240zm0 60c192.88-2.099 385.754-.955 578.636 0a55.756 55.756 0 0 1 39.355 16.332 55.77 55.77 0 0 1 16.334 39.355v248.624a55.77 55.77 0 0 1-16.334 39.357A55.756 55.756 0 0 1 724.324 660H145.688A55.767 55.767 0 0 1 90 604.31V355.688A55.766 55.766 0 0 1 145.688 300zM900 380.003a30.014 30.014 0 0 0-21.214 8.786A30.014 30.014 0 0 0 870 410.003v139.988a30.01 30.01 0 0 0 8.786 21.214 30.005 30.005 0 0 0 42.428 0A30.01 30.01 0 0 0 930 549.991V410.003a30.014 30.014 0 0 0-8.786-21.214A30.014 30.014 0 0 0 900 380.003z"/>
    <path d="M130.674 579.371c0 17.376 9.48 26.089 9.48 26.089s8.471 11.411 28.02 11.411h533.672c22.44 0 37.5-18.489 37.5-37.5v-198.75c0-17.018-10.984-26.516-10.984-26.516s-9.56-10.984-26.516-10.984H168.174c-17.032 0-26.516 10.984-26.516 10.984s-10.984 9.617-10.984 26.516z"/>
  </g>
</svg>
