<?xml version="1.0" encoding="UTF-8" standalone="no"?>
<svg
   fill="none"
   viewBox="-32 -32 1024 1024"
   id="Battery-Charging-Outline--Streamline-Ionic-Outline"
   height="1024"
   width="1024"
   version="1.1"
   xmlns="http://www.w3.org/2000/svg"
   xmlns:svg="http://www.w3.org/2000/svg">
  <defs
     id="defs6" />
  <desc
     id="desc1">
    Battery Charging Outline Streamline Icon: https://streamlinehq.com
  </desc>
  <g
     id="g39"
     transform="translate(-1092.4044,-0.011)">
    <path
       id="path13"
       style="fill:#000000;stroke-width:1"
       d="m 1238.0919,240.011 c -30.6717,0.036 -60.0758,12.23387 -81.7637,33.92187 -21.6882,21.688 -33.8892,51.09363 -33.9238,81.76563 v 248.62304 c 0.035,30.672 12.2356,60.07763 33.9238,81.76563 21.6879,21.688 51.092,33.88783 81.7637,33.92383 h 578.6361 c 30.6721,-0.036 60.0756,-12.23583 81.7655,-33.92383 21.688,-21.688 33.8899,-51.09363 33.9239,-81.76563 V 355.6985 c -0.034,-30.672 -12.2359,-60.07763 -33.9239,-81.76563 -21.6899,-21.688 -51.0934,-33.88587 -81.7655,-33.92187 z m 0,60 c 192.8812,-2.09893 385.7543,-0.95542 578.6361,0 14.764,0.02 28.9176,5.89203 39.3555,16.33203 10.4401,10.44 16.3119,24.59147 16.3339,39.35547 v 248.62304 c -0.022,14.764 -5.8938,28.91942 -16.3339,39.35742 -10.4379,10.44001 -24.5915,16.31204 -39.3555,16.33204 h -578.6361 c -14.7633,-0.02 -28.9142,-5.89203 -39.3536,-16.33204 -10.439,-10.438 -16.3139,-24.59342 -16.3339,-39.35742 V 355.6985 c 0.02,-14.764 5.8949,-28.91547 16.3339,-39.35547 10.4394,-10.44 24.5903,-16.31203 39.3536,-16.33203 z" />
    <path
       fill="#000000"
       d="m 1992.4044,380.01409 c -7.956,0 -15.586,3.162 -21.2139,8.786 -5.624,5.628 -8.7861,13.258 -8.7861,21.214 v 139.988 c 0,7.956 3.1621,15.588 8.7861,21.214 5.6279,5.626 13.2579,8.786 21.2139,8.786 7.956,0 15.586,-3.16 21.214,-8.786 5.624,-5.626 8.786,-13.258 8.786,-21.214 v -139.988 c 0,-7.956 -3.162,-15.586 -8.786,-21.214 -5.628,-5.624 -13.258,-8.786 -21.214,-8.786 z"
       stroke-width="64.0001"
       id="path6-6" />
    <path
       style="display:inline;opacity:1;fill:#000000;stroke-width:1"
       d="m 1223.0788,579.38209 c 0,17.37628 9.4787,26.08866 9.4787,26.08866 0,0 8.4721,11.41134 28.0213,11.41134 h 533.6718 c 22.4407,0 37.4999,-18.48861 37.4999,-37.5 v -198.75 c 0,-17.01765 -10.984,-26.516 -10.984,-26.516 0,0 -9.5607,-10.984 -26.5159,-10.984 h -533.6718 c -17.0325,0 -26.5164,10.984 -26.5164,10.984 0,0 -10.9836,9.61725 -10.9836,26.516 z"
       id="path11" />
  </g>
</svg>
