<?xml version="1.0" encoding="UTF-8" standalone="no"?>
<svg
   fill="none"
   viewBox="-32 -32 1024 1024"
   id="Battery-Charging-Outline--Streamline-Ionic-Outline"
   height="1024"
   width="1024"
   version="1.1"
   xmlns="http://www.w3.org/2000/svg"
   xmlns:svg="http://www.w3.org/2000/svg">
  <defs
     id="defs6" />
  <desc
     id="desc1">
    Battery Charging Outline Streamline Icon: https://streamlinehq.com
  </desc>
  <g
     id="g21"
     transform="translate(-1092.4045,-1548.1209)">
    <path
       fill="#000000"
       d="m 1816.7285,1788.1209 h -184.95 c 0.552,4.498 0.38,9.056 -0.506,13.5 l -0.282,1.388 -0.394,1.368 -12.262,43.744 h 198.394 c 14.764,0.02 28.916,5.892 39.354,16.332 10.44,10.44 16.312,24.592 16.334,39.356 v 248.624 c -0.022,14.764 -5.894,28.918 -16.334,39.356 -10.438,10.44 -24.59,16.312 -39.354,16.332 h -261.188 l -45.788,60 h 306.976 c 30.672,-0.036 60.076,-12.234 81.766,-33.922 21.688,-21.688 33.888,-51.094 33.922,-81.766 v -248.624 c -0.034,-30.672 -12.234,-60.078 -33.922,-81.766 -21.69,-21.688 -51.094,-33.886 -81.766,-33.922 z"
       stroke-width="64"
       id="path2-0" />
    <path
       fill="#000000"
       d="m 1182.4045,2152.4329 v -248.624 c 0.02,-14.764 5.8934,-28.916 16.3324,-39.356 10.4394,-10.44 24.592,-16.312 39.3552,-16.332 h 257.7004 l 45.75,-60 h -303.4504 c -30.6716,0.036 -60.077,12.234 -81.765,33.922 -21.6882,21.688 -33.888,51.094 -33.9226,81.766 v 248.624 c 0.035,30.672 12.2344,60.078 33.9226,81.766 21.688,21.688 51.0934,33.886 81.765,33.922 h 181.5944 c -0.586,-4.57 -0.422,-9.206 0.488,-13.724 l 0.28,-1.406 0.394,-1.37 12.188,-43.5 h -194.9444 c -14.7632,-0.02 -28.9158,-5.892 -39.3552,-16.332 -10.439,-10.438 -16.3124,-24.592 -16.3324,-39.356 z"
       stroke-width="64"
       id="path1-9" />
    <path
       fill="#000000"
       d="m 1610.0425,2074.7829 50.756,-66.544 c 0.716,-1.086 1.208,-2.304 1.444,-3.582 0.078,-0.408 0.128,-0.822 0.15,-1.238 0.056,-0.808 0.01,-1.622 -0.15,-2.418 -0.218,-1.162 -0.65,-2.276 -1.276,-3.282 -0.408,-0.654 -0.9,-1.252 -1.462,-1.78 -0.278,-0.264 -0.58,-0.504 -0.9,-0.714 -0.636,-0.45 -1.336,-0.796 -2.08,-1.03 -0.794,-0.252 -1.622,-0.38 -2.458,-0.376 h -115.536 l 22.724,-81.018 6.056,-21.562 11.644,-41.55 0.956,-3.45 14.606,-52.052 c 0.058,-0.34 0.09,-0.684 0.094,-1.03 v -0.3 c 0,-0.094 0,-0.488 -0.094,-0.712 -0.094,-0.226 0,-0.17 0,-0.264 -0.074,-0.292 -0.182,-0.574 -0.318,-0.844 -0.146,-0.252 -0.31,-0.496 -0.488,-0.73 l -0.168,-0.188 c -0.146,-0.154 -0.304,-0.296 -0.47,-0.432 l -0.186,-0.15 c -0.234,-0.166 -0.476,-0.316 -0.732,-0.45 -0.246,-0.114 -0.502,-0.202 -0.768,-0.262 h -1.106 c -0.28,-0.028 -0.564,-0.028 -0.844,0 -0.272,0.064 -0.536,0.158 -0.788,0.282 l -0.244,0.13 -0.562,0.394 -0.206,0.188 c -0.254,0.23 -0.48,0.488 -0.676,0.768 l -33.75,44.308 -24.638,32.286 -18.468,24.058 -119.456,156.656 c -0.314,0.478 -0.59,0.978 -0.826,1.5 -0.3,0.652 -0.518,1.338 -0.656,2.044 -0.16,0.794 -0.212,1.61 -0.15,2.418 0.064,1.366 0.434,2.702 1.082,3.906 0.65,1.206 1.562,2.248 2.668,3.05 0.324,0.216 0.664,0.41 1.012,0.582 1.106,0.534 2.318,0.81 3.544,0.806 h 115.538 l -55.912,199.538 c -0.026,0.35 -0.026,0.7 0,1.05 v 0.28 c 0.018,0.24 0.056,0.478 0.112,0.714 -0.01,0.088 -0.01,0.176 0,0.262 0.076,0.292 0.182,0.576 0.32,0.844 0.148,0.248 0.31,0.486 0.486,0.712 l 0.17,0.188 0.468,0.45 c 0.072,0.038 0.136,0.09 0.188,0.15 0.228,0.168 0.474,0.312 0.73,0.43 0.25,0.108 0.508,0.196 0.77,0.264 h 0.244 c 0.206,0.018 0.414,0.018 0.618,0 h 0.244 c 0.284,-0.01 0.568,-0.048 0.844,-0.114 0.266,-0.07 0.524,-0.172 0.768,-0.3 l 0.244,-0.13 0.562,-0.394 0.206,-0.168 c 0.256,-0.23 0.48,-0.488 0.676,-0.77 l 43.724,-57.094 32.87,-43.124 z"
       stroke-width="64"
       id="path4-3" />
    <path
       fill="#000000"
       d="m 1992.4045,1928.1249 c -7.956,0 -15.586,3.162 -21.214,8.786 -5.624,5.628 -8.786,13.258 -8.786,21.214 v 139.988 c 0,7.956 3.162,15.588 8.786,21.214 5.628,5.626 13.258,8.786 21.214,8.786 7.956,0 15.586,-3.16 21.214,-8.786 5.624,-5.626 8.786,-13.258 8.786,-21.214 v -139.988 c 0,-7.956 -3.162,-15.586 -8.786,-21.214 -5.628,-5.624 -13.258,-8.786 -21.214,-8.786 z"
       stroke-width="64"
       id="path6-60" />
    <path
       fill="#000000"
       d="m 1691.4825,2029.8629 -0.864,1.124 -102.244,134.006 h 144.9943 c 9.944,0 19.484,-3.95 26.516,-10.984 7.032,-7.032 10.984,-16.57 10.984,-26.516 v -198.75 c 0,-9.944 -3.952,-19.482 -10.984,-26.516 -7.032,-7.034 -16.572,-10.984 -26.516,-10.984 h -127.1063 l -18.262,65.12 h 66.074 c 8.242,-0.01 16.33,2.21 23.412,6.424 7.08,4.216 12.886,10.27 16.808,17.518 4.072,7.482 6.048,15.926 5.718,24.438 -0.33,8.51 -2.952,16.776 -7.594,23.92 z"
       stroke-width="64"
       id="path5-6" />
    <path
       fill="#000000"
       d="m 1397.3785,2099.6689 c -8.318,0 -16.48,-2.268 -23.604,-6.562 -7.124,-4.296 -12.94,-10.456 -16.822,-17.814 -4.014,-7.548 -5.89,-16.05 -5.418,-24.586 0.468,-8.538 3.264,-16.782 8.08,-23.844 l 0.582,-0.864 0.618,-0.824 102.132,-133.932 h -202.3682 c -9.9454,0 -19.4838,3.95 -26.5164,10.984 -7.0326,7.034 -10.9836,16.572 -10.9836,26.516 v 198.75 c 0,9.946 3.951,19.484 10.9836,26.516 7.0326,7.034 16.571,10.984 26.5164,10.984 h 184.5362 l 18.338,-65.362 z"
       stroke-width="64"
       id="path3-2" />
  </g>
</svg>
