<svg fill="none" viewBox="-32 -32 1024 1024">
  <g fill="white">
    <path d="M145.687 240A115.82 115.82 0 0 0 30 355.688V604.31A115.821 115.821 0 0 0 145.687 720h578.637a115.83 115.83 0 0 0 81.765-33.924 115.818 115.818 0 0 0 33.924-81.765V355.688A115.818 115.818 0 0 0 724.323 240Zm0 60c192.882-2.099 385.755-.955 578.637 0a55.757 55.757 0 0 1 39.355 16.332 55.77 55.77 0 0 1 16.334 39.356V604.31a55.772 55.772 0 0 1-16.334 39.357A55.757 55.757 0 0 1 724.324 660H145.687A55.767 55.767 0 0 1 90 604.31V355.689A55.766 55.766 0 0 1 145.687 300ZM900 380.003a30.014 30.014 0 0 0-21.214 8.786A30.014 30.014 0 0 0 870 410.003v139.988a30.01 30.01 0 0 0 8.786 21.214 30.006 30.006 0 0 0 42.428 0A30.01 30.01 0 0 0 930 549.991V410.003a30.014 30.014 0 0 0-8.786-21.214A30.014 30.014 0 0 0 900 380.003z"/>
    <path d="M130.67 580.516c0 17.376 9.478 26.089 9.478 26.089s8.472 11.41 28.022 11.41l168.473-1.144c22.44 0 37.5-18.488 37.5-37.5v-198.75c0-17.018-10.984-26.516-10.984-26.516s-9.56-10.984-26.516-10.984l-168.473 1.145c-17.033 0-26.517 10.984-26.517 10.984s-10.983 9.617-10.983 26.516z"/>
  </g>
</svg>
