<?xml version="1.0" encoding="UTF-8" standalone="no"?>
<svg
   fill="none"
   viewBox="-32 -32 1024 1024"
   id="Battery-Charging-Outline--Streamline-Ionic-Outline"
   height="1024"
   width="1024"
   version="1.1"
   xmlns="http://www.w3.org/2000/svg"
   xmlns:svg="http://www.w3.org/2000/svg">
  <defs
     id="defs6" />
  <desc
     id="desc1">
    Battery Charging Outline Streamline Icon: https://streamlinehq.com
  </desc>
  <g
     id="g33"
     transform="translate(-213.00035,-611.99996)">
    <path
       id="path13-9-7-6"
       style="fill:#000000"
       d="m 358.6875,852 c -30.6716,0.036 -60.0757,12.23387 -81.7637,33.92187 -21.6882,21.688 -33.8892,51.09363 -33.9238,81.76563 v 248.623 c 0.035,30.672 12.2356,60.0777 33.9238,81.7657 21.688,21.688 51.0921,33.8878 81.7637,33.9238 h 578.6367 c 30.672,-0.036 60.0756,-12.2358 81.7656,-33.9238 21.688,-21.688 33.8898,-51.0937 33.9238,-81.7657 v -248.623 c -0.034,-30.672 -12.2358,-60.07763 -33.9238,-81.76563 C 997.3998,864.23387 967.9962,852.036 937.3242,852 Z m 0,60 c 192.8814,-2.09893 385.7547,-0.95542 578.6367,0 14.764,0.02 28.9175,5.89203 39.3555,16.33203 10.44,10.44 16.3119,24.59147 16.3339,39.35547 v 248.623 c -0.022,14.764 -5.8939,28.9195 -16.3339,39.3575 -10.438,10.44 -24.5915,16.312 -39.3555,16.332 H 358.6875 c -14.7632,-0.02 -28.9141,-5.892 -39.3535,-16.332 C 308.895,1245.23 303.02,1231.0745 303,1216.3105 v -248.623 c 0.02,-14.764 5.895,-28.91547 16.334,-39.35547 C 329.7734,917.89203 343.9243,912.02 358.6875,912 Z" />
    <path
       fill="#000000"
       d="m 1113.0007,992.00309 c -7.956,0 -15.586,3.162 -21.214,8.78601 -5.624,5.628 -8.786,13.258 -8.786,21.214 v 139.988 c 0,7.956 3.162,15.588 8.786,21.214 5.628,5.626 13.258,8.786 21.214,8.786 7.956,0 15.586,-3.16 21.214,-8.786 5.624,-5.626 8.786,-13.258 8.786,-21.214 v -139.988 c 0,-7.956 -3.162,-15.586 -8.786,-21.214 -5.628,-5.62401 -13.258,-8.78601 -21.214,-8.78601 z"
       stroke-width="64"
       id="path6-6-1-5-1" />
    <path
       style="display:inline;fill:#000000;stroke-width:1"
       d="m 343.66995,1192.5158 c 0,17.3763 9.4787,26.0887 9.4787,26.0887 0,0 8.4721,11.4113 28.0213,11.4113 l 168.47345,-1.1447 c 22.4407,0 37.4999,-18.4886 37.4999,-37.5 v -198.75 c 0,-17.01765 -10.984,-26.516 -10.984,-26.516 0,0 -9.5607,-10.984 -26.5159,-10.984 l -168.47345,1.14471 c -17.0325,0 -26.5164,10.984 -26.5164,10.984 0,0 -10.9836,9.61725 -10.9836,26.516 z"
       id="path11-8" />
  </g>
</svg>
